<?xml version="1.0" standalone="no"?>
<!DOCTYPE svg PUBLIC "-//W3C//DTD SVG 20010904//EN"
 "http://www.w3.org/TR/2001/REC-SVG-20010904/DTD/svg10.dtd">
<svg version="1.0" xmlns="http://www.w3.org/2000/svg"
 width="449.000000pt" height="449.000000pt" viewBox="0 0 449.000000 449.000000"
 preserveAspectRatio="xMidYMid meet">
<metadata>
Created by potrace 1.11, written by Peter Selinger 2001-2013
</metadata>
<g transform="translate(0.000000,449.000000) scale(0.100000,-0.100000)"
fill="#000000" stroke="none">
<path d="M2110 4483 c-342 -33 -658 -177 -903 -412 -226 -216 -377 -490 -444
-801 -26 -123 -26 -459 1 -580 86 -396 315 -741 631 -952 l60 -40 5 -141 c5
-119 9 -150 28 -192 29 -63 83 -119 147 -153 l50 -27 555 0 c547 0 556 0 601
21 57 26 120 88 151 146 20 38 23 60 26 193 l4 150 81 55 c114 75 308 271 386
389 199 299 286 644 251 987 -36 355 -184 666 -435 919 -247 247 -560 397
-907 434 -92 10 -210 12 -288 4z m374 -334 c115 -23 217 -61 331 -122 69 -38
80 -47 77 -68 -4 -42 -97 -221 -163 -314 -78 -110 -317 -352 -459 -464 -139
-110 -300 -225 -306 -218 -3 3 39 230 94 506 82 420 96 501 83 501 -9 0 -74
-7 -146 -15 -145 -16 -465 -32 -465 -22 0 10 109 81 175 114 241 122 504 156
779 102z m-1068 -360 c52 -57 152 -77 304 -61 47 5 87 7 90 5 8 -7 -324 -1663
-334 -1663 -17 0 -153 146 -206 221 -271 384 -292 898 -54 1299 46 77 158 220
173 220 4 0 16 -9 27 -21z m1789 -103 c154 -217 227 -441 227 -701 1 -371
-159 -704 -450 -937 -59 -46 -77 -56 -91 -48 -10 5 -53 41 -95 81 -84 79 -201
229 -318 409 -87 132 -268 448 -268 466 0 6 6 14 14 17 30 12 340 252 480 372
151 130 426 400 426 418 0 16 30 -14 75 -77z m-1194 -958 c182 -312 318 -517
444 -673 76 -93 180 -198 228 -229 l27 -18 0 -154 0 -154 -471 0 -471 0 4 279
5 279 79 396 c43 218 80 396 81 396 1 0 34 -55 74 -122z"/>
<path d="M1681 1062 c-67 -36 -91 -132 -51 -197 41 -66 31 -65 617 -65 506 0
529 1 560 20 46 28 67 65 67 120 0 55 -21 92 -67 120 -31 19 -54 20 -562 20
-495 0 -533 -1 -564 -18z"/>
<path d="M1803 686 c-89 -40 -79 -179 14 -206 26 -8 168 -10 449 -8 395 3 413
4 434 23 57 50 58 125 4 176 l-26 24 -421 2 c-344 2 -428 0 -454 -11z"/>
<path d="M1905 345 c-28 -27 -32 -70 -11 -98 8 -10 49 -30 92 -45 75 -27 77
-28 90 -71 15 -51 55 -98 101 -117 96 -41 209 19 231 122 8 37 10 39 82 62 41
12 82 30 92 39 27 24 24 84 -5 111 -23 22 -29 22 -336 22 l-312 0 -24 -25z"/>
</g>
</svg>
